<?xml version="1.0" encoding="UTF-8"?>
<!DOCTYPE svg PUBLIC "-//W3C//DTD SVG 1.1//EN" "http://www.w3.org/Graphics/SVG/1.1/DTD/svg11.dtd">
<!-- Creator: CorelDRAW X7 -->
<svg xmlns="http://www.w3.org/2000/svg" xml:space="preserve" width="635mm" height="448.733mm" version="1.1" style="shape-rendering:geometricPrecision; text-rendering:geometricPrecision; image-rendering:optimizeQuality; fill-rule:evenodd; clip-rule:evenodd"
viewBox="0 0 63500 44873"
 xmlns:xlink="http://www.w3.org/1999/xlink">
 <defs>
  <style type="text/css">
   <![CDATA[
    .fil1 {fill:#ED3237}
    .fil0 {fill:#FCB740}
   ]]>
  </style>
 </defs>
 <g id="Capa_x0020_1">
  <metadata id="CorelCorpID_0Corel-Layer"/>
  <g id="_561247968">
   <path class="fil0" d="M17345 21794c0,0 4796,1147 7889,-2763 0,0 2554,3180 6464,2989 3910,-192 6047,-2312 6239,-2972 0,0 2797,3814 8010,2807l0 13745c0,0 -52,4188 -3597,4292 -3545,104 -4014,-4275 -4014,-4275l0 -7272c0,0 -460,-1208 -1538,-339 -1077,869 -2902,3510 -4466,3858 -1564,347 -2328,-278 -2780,-747 -452,-470 -3180,-3319 -3180,-3319 0,0 -521,-339 -886,17 -365,356 -356,773 -356,773l0 7125c0,0 -44,4101 -3902,4101 -3858,0 -3892,-4014 -3892,-4014l9 -14006z"/>
   <path class="fil0" d="M12444 14026c0,0 -70,6812 6551,6882 0,0 4675,173 6273,-4449 0,0 26,-117 133,-117 106,0 143,132 143,132 0,0 1323,4431 6432,4431 5109,0 6012,-4518 6012,-4518 0,0 1,-155 87,-178 87,-23 113,170 113,170 0,0 1147,4470 6725,4470 5578,0 6082,-6013 6082,-6013 0,0 209,-842 -104,-1164 -313,-321 -9262,-10105 -9262,-10105 0,0 -291,-478 -1325,-478 -1034,0 -4788,22 -4788,22 0,0 -191,283 -504,278 -313,-4 -512,-243 -512,-243l-5535 0c0,0 -96,235 -426,235 -330,0 -425,-252 -425,-252l-5691 0 -9871 10660c0,0 -113,135 -115,189 -2,55 7,48 7,48z"/>
   <polygon class="fil1" points="13988,13818 25022,13818 28089,3791 23080,3791 "/>
   <polygon class="fil1" points="26217,13807 37303,13807 34288,3780 29205,3780 "/>
   <polygon class="fil1" points="49698,13818 38663,13818 35596,3791 40605,3791 "/>
   <path class="fil1" d="M13513 14519c0,0 17,5384 5422,5578 5404,194 5769,-5560 5769,-5560l-11191 -18z"/>
   <path class="fil1" d="M26164 14519c0,0 18,5384 5422,5578 5404,194 5769,-5560 5769,-5560l-11191 -18z"/>
   <path class="fil1" d="M38901 14519c0,0 18,5384 5422,5578 5404,194 5769,-5560 5769,-5560l-11191 -18z"/>
   <path class="fil1" d="M15494 21192l943 434 -13 14823c0,0 782,4379 4778,4379 3997,0 4762,-4188 4762,-4188l0 -7837c0,0 2902,3041 3406,3319 504,278 834,730 2415,730 1581,0 2120,-452 2798,-1129 678,-678 2832,-2920 2832,-2920l0 7577c0,0 522,4466 4796,4466 4275,0 4744,-4466 4744,-4466l0 -14806 1026 -530 -92 15336c0,0 -226,5326 -5682,5326 -5457,0 -5769,-5457 -5769,-5457l26 -5065c0,0 -1512,2572 -4683,2572 -3172,0 -4762,-2442 -4762,-2442l-35 5031c0,0 -434,5439 -5786,5439 -5353,0 -5752,-5370 -5752,-5370l-53 -15274 101 52z"/>
  </g>
 </g>
</svg>
