<?xml version="1.0" encoding="UTF-8"?>
<!DOCTYPE svg PUBLIC "-//W3C//DTD SVG 1.1//EN" "http://www.w3.org/Graphics/SVG/1.1/DTD/svg11.dtd">
<!-- Creator: CorelDRAW X7 -->
<svg xmlns="http://www.w3.org/2000/svg" xml:space="preserve" width="635mm" height="448.733mm" version="1.1" style="shape-rendering:geometricPrecision; text-rendering:geometricPrecision; image-rendering:optimizeQuality; fill-rule:evenodd; clip-rule:evenodd"
viewBox="0 0 63500 44873"
 xmlns:xlink="http://www.w3.org/1999/xlink">
 <defs>
  <style type="text/css">
   <![CDATA[
    .fil1 {fill:#ED3237}
    .fil0 {fill:#FCB740}
    .fil2 {fill:#ED3237;fill-rule:nonzero}
    .fil3 {fill:#FCB740;fill-rule:nonzero}
   ]]>
  </style>
 </defs>
 <g id="Capa_x0020_1">
  <metadata id="CorelCorpID_0Corel-Layer"/>
  <g id="_559699728">
   <g>
    <path class="fil0" d="M3312 22243c0,0 1442,345 2373,-831 0,0 768,957 1944,899 1176,-57 1818,-695 1876,-893 0,0 841,1147 2409,844l0 4133c0,0 -16,1260 -1082,1291 -1066,32 -1207,-1285 -1207,-1285l0 -2187c0,0 -138,-364 -462,-102 -324,261 -873,1055 -1344,1160 -470,104 -700,-84 -836,-225 -136,-141 -956,-998 -956,-998 0,0 -157,-102 -267,5 -109,107 -107,233 -107,233l0 2142c0,0 -13,1234 -1173,1234 -1160,0 -1171,-1207 -1171,-1207l3 -4213z"/>
    <path class="fil0" d="M1838 19907c0,0 -21,2049 1970,2070 0,0 1406,52 1887,-1338 0,0 8,-35 40,-35 32,0 43,39 43,39 0,0 398,1333 1934,1333 1537,0 1808,-1359 1808,-1359 0,0 1,-46 27,-53 26,-7 34,51 34,51 0,0 344,1344 2022,1344 1678,0 1829,-1808 1829,-1808 0,0 63,-254 -31,-350 -94,-97 -2786,-3039 -2786,-3039 0,0 -87,-144 -398,-144 -311,0 -1440,7 -1440,7 0,0 -58,85 -152,83 -94,-1 -154,-73 -154,-73l-1664 0c0,0 -29,71 -128,71 -100,0 -128,-76 -128,-76l-1712 0 -2968 3206c0,0 -34,41 -35,57 -1,16 2,14 2,14z"/>
    <polygon class="fil1" points="2302,19845 5621,19845 6543,16829 5037,16829 "/>
    <polygon class="fil1" points="5980,19841 9314,19841 8408,16826 6879,16826 "/>
    <polygon class="fil1" points="13042,19845 9723,19845 8801,16829 10307,16829 "/>
    <path class="fil1" d="M2160 20056c0,0 5,1619 1630,1677 1626,58 1735,-1672 1735,-1672l-3365 -5z"/>
    <path class="fil1" d="M5964 20056c0,0 6,1619 1631,1677 1625,58 1735,-1672 1735,-1672l-3366 -5z"/>
    <path class="fil1" d="M9795 20056c0,0 5,1619 1630,1677 1626,58 1736,-1672 1736,-1672l-3366 -5z"/>
    <path class="fil1" d="M2755 22062l284 131 -4 4458c0,0 235,1317 1437,1317 1202,0 1432,-1260 1432,-1260l0 -2357c0,0 873,915 1024,999 152,83 251,219 727,219 475,0 637,-136 841,-340 204,-203 852,-878 852,-878l0 2279c0,0 157,1343 1442,1343 1286,0 1427,-1343 1427,-1343l0 -4453 309 -159 -28 4612c0,0 -68,1602 -1709,1602 -1641,0 -1735,-1641 -1735,-1641l8 -1524c0,0 -455,774 -1409,774 -953,0 -1432,-734 -1432,-734l-10 1512c0,0 -131,1636 -1740,1636 -1610,0 -1730,-1615 -1730,-1615l-16 -4593 30 15z"/>
   </g>
   <path class="fil2" d="M16875 19876c0,362 -116,676 -349,943 -207,238 -495,363 -868,376 -71,2 -268,3 -589,3 -61,0 -152,-2 -273,-5 -121,-4 -212,-6 -273,-6 -36,0 -53,-14 -53,-42 0,-136 5,-340 15,-612 10,-272 15,-475 15,-611 0,-142 -5,-354 -15,-637 -10,-283 -15,-495 -15,-635 0,-26 17,-42 53,-47 88,-9 231,-15 431,-15 380,0 625,6 738,17 291,30 521,103 685,222 156,111 278,267 368,466 87,189 130,383 130,583zm-708 0c0,-209 -63,-378 -187,-510 -126,-137 -292,-206 -499,-206 -189,0 -284,26 -284,76 0,73 -1,182 -4,328 -2,146 -4,256 -4,328 0,72 2,179 4,323 3,144 4,252 4,324 0,53 98,80 295,80 213,0 381,-71 503,-213 114,-134 172,-311 172,-530zm1715 -913c0,215 -121,322 -363,322 -104,0 -190,-27 -257,-81 -74,-59 -111,-140 -111,-241 0,-95 38,-175 115,-236 70,-57 154,-85 253,-85 96,0 180,29 250,87 75,61 113,140 113,234zm-49 1375c0,90 1,225 5,403 4,178 6,311 6,400 0,26 -15,42 -46,46 -42,8 -136,11 -283,11 -148,0 -242,-3 -284,-11 -27,-4 -44,-13 -50,-24 -2,-5 -4,-23 -4,-56 0,-84 2,-212 6,-383 4,-171 6,-300 6,-386 0,-350 -14,-629 -42,-836 -3,-20 -4,-33 -4,-39 0,-25 17,-37 50,-37 35,0 87,4 159,11 70,8 124,11 160,11 35,0 89,-3 161,-9 71,-6 125,-9 161,-9 30,0 44,12 44,37 0,5 -1,17 -4,35 -28,241 -41,519 -41,836zm1438 -647c0,13 -9,29 -27,50 -35,-8 -69,-12 -103,-12 -73,0 -134,15 -183,48 -59,36 -88,88 -88,156 0,42 31,97 94,164 95,100 153,167 175,202 63,93 94,194 94,301 0,63 -12,130 -36,200 -29,78 -65,134 -107,170 -91,79 -197,146 -319,200 -132,57 -253,85 -363,85 -25,0 -80,-67 -166,-201 -87,-133 -130,-215 -130,-245 0,-10 7,-17 20,-20 87,-16 173,-32 261,-48 108,-34 162,-91 162,-170 0,-55 -31,-118 -94,-189 -112,-125 -170,-191 -175,-198 -63,-89 -94,-183 -94,-281 0,-185 93,-342 281,-472 167,-115 346,-172 537,-172 20,0 68,66 145,199 78,134 116,211 116,233zm1504 956c0,37 -4,93 -14,168 -9,75 -14,130 -14,165 0,35 -3,58 -10,67 -8,11 -28,24 -62,43 -159,87 -335,131 -529,131 -354,0 -533,-136 -534,-408 0,-82 3,-204 10,-367 6,-164 9,-286 9,-367 0,-54 -31,-81 -95,-81 -5,0 -13,0 -24,0 -11,1 -19,1 -24,1 -47,0 -71,-17 -71,-49 0,-21 2,-51 5,-91 3,-41 5,-72 5,-91 0,-26 -2,-66 -5,-119 -3,-53 -5,-92 -5,-118 0,-25 40,-38 119,-41 45,-1 69,-13 72,-37 8,-47 11,-121 8,-222 -5,-159 -8,-235 -8,-227 0,-143 14,-215 41,-215 34,0 82,7 144,22 70,15 120,25 147,27 63,9 158,20 286,35 31,2 47,13 47,31 0,49 -4,124 -12,224 -9,100 -12,175 -12,226 0,60 17,91 53,91 43,0 108,-2 194,-6 87,-4 152,-6 196,-6 28,0 41,10 41,28 0,28 -3,71 -9,128 -6,57 -10,99 -10,128 0,29 1,72 2,129 2,57 2,100 2,129 0,26 -17,40 -53,40 -25,0 -66,-2 -123,-4 -58,-1 -100,-2 -124,-2l-138 0c-18,0 -28,27 -28,81 0,30 0,74 0,132 2,60 2,104 2,132 0,104 12,176 35,216 33,53 98,79 195,79 31,0 75,-7 132,-21 57,-14 97,-21 121,-21 25,0 38,13 38,40zm1421 -614c0,49 -27,73 -80,73 -23,0 -57,-2 -102,-6 -45,-3 -79,-4 -101,-4 -101,0 -171,16 -207,48 -38,32 -56,97 -56,194 0,53 1,134 3,242 1,108 2,189 2,242 0,36 3,89 7,160 4,71 7,124 7,159 0,30 -20,46 -61,50 -59,5 -150,7 -272,7 -116,0 -210,-3 -280,-11 -41,-5 -61,-25 -61,-61 0,-99 0,-247 2,-443 1,-197 2,-345 2,-443 0,-290 -27,-528 -80,-715 -2,-12 -4,-21 -4,-28 0,-19 10,-31 28,-37 68,-8 168,-21 299,-41 195,-39 296,-58 302,-58 22,0 37,39 42,116 7,77 18,116 34,116 -17,0 33,-32 151,-97 118,-65 231,-97 341,-97 68,0 102,15 102,44 0,36 -3,87 -11,152 -7,70 -12,121 -13,151 0,36 0,84 2,143 2,73 4,121 4,144zm950 -1070c0,215 -122,322 -363,322 -104,0 -190,-27 -257,-81 -74,-59 -111,-140 -111,-241 0,-95 38,-175 114,-236 71,-57 155,-85 254,-85 96,0 180,29 250,87 75,61 113,140 113,234zm-50 1375c0,90 2,225 6,403 4,178 6,311 6,400 0,26 -15,42 -46,46 -42,8 -137,11 -283,11 -148,0 -243,-3 -284,-11 -27,-4 -44,-13 -50,-24 -3,-5 -4,-23 -4,-56 0,-84 2,-212 6,-383 4,-171 5,-300 5,-386 0,-350 -13,-629 -41,-836 -3,-20 -4,-33 -4,-39 0,-25 16,-37 50,-37 35,0 87,4 158,11 71,8 125,11 161,11 35,0 89,-3 161,-9 71,-6 125,-9 161,-9 29,0 44,12 44,37 0,5 -1,17 -4,35 -28,241 -42,519 -42,836zm2363 -56c0,260 -73,476 -222,650 -158,185 -364,278 -618,278 -185,0 -334,-53 -448,-160 -9,-8 -16,-11 -22,-11 -12,0 -24,22 -34,68 -11,45 -24,70 -38,74 -21,7 -197,10 -527,10 -78,0 -117,-14 -117,-43 0,-3 1,-13 4,-27 25,-197 38,-570 38,-1121 0,-526 -19,-983 -55,-1373l-2 -20c0,-20 19,-31 57,-34 27,-1 134,-10 322,-27 131,-12 238,-18 320,-18 24,0 36,20 36,61 0,48 -4,111 -9,190 -7,97 -12,162 -13,193 -6,122 -9,288 -9,498 0,39 10,58 30,58 10,0 19,-5 28,-15 111,-119 256,-178 436,-178 270,0 481,92 633,276 140,170 210,393 210,671zm-670 -20c0,-103 -32,-189 -94,-260 -63,-71 -145,-107 -246,-107 -103,0 -185,36 -245,107 -60,71 -89,158 -89,263 0,109 29,197 87,263 61,71 145,106 251,106 104,0 188,-37 249,-109 58,-68 87,-156 87,-263zm2799 -757c0,92 -5,229 -14,411 -9,183 -13,320 -13,410 0,89 3,223 9,400 7,178 10,311 10,398 0,33 -15,55 -46,63 -48,13 -147,19 -299,19 -134,0 -228,-4 -281,-11 -24,-4 -38,-19 -45,-45 -3,-36 -6,-74 -10,-110 -5,-57 -14,-85 -24,-85 17,0 -44,42 -186,125 -143,84 -272,126 -388,126 -327,0 -522,-148 -582,-443 -27,-137 -41,-335 -41,-595 0,-282 23,-504 69,-667 14,-50 39,-75 75,-75 57,0 144,0 260,1 115,2 202,2 259,2 38,0 57,16 57,48 0,9 -1,22 -4,40 -25,167 -38,337 -38,510 0,215 7,362 21,441 22,136 103,204 242,204 54,0 113,-24 176,-73 64,-48 97,-98 99,-150 3,-46 4,-355 4,-929 0,-41 3,-65 10,-72 7,-12 29,-19 66,-19 60,0 151,1 273,2 121,2 212,2 272,2 37,0 58,10 65,28 2,9 4,25 4,44zm1037 -542c0,215 -121,322 -363,322 -103,0 -189,-27 -257,-81 -73,-59 -111,-140 -111,-241 0,-95 39,-175 115,-236 70,-57 155,-85 253,-85 97,0 180,29 250,87 75,61 113,140 113,234zm-49 1375c0,90 2,225 6,403 4,178 5,311 5,400 0,26 -15,42 -46,46 -41,8 -136,11 -282,11 -148,0 -243,-3 -285,-11 -27,-4 -43,-13 -49,-24 -3,-5 -4,-23 -4,-56 0,-84 2,-212 6,-383 3,-171 5,-300 5,-386 0,-350 -14,-629 -41,-836 -3,-20 -4,-33 -4,-39 0,-25 16,-37 50,-37 34,0 87,4 158,11 71,8 124,11 160,11 36,0 89,-3 161,-9 72,-6 125,-9 161,-9 30,0 45,12 45,37 0,5 -2,17 -4,35 -28,241 -42,519 -42,836zm2318 -1775c0,-28 -5,13 -15,121 -14,137 -24,312 -31,526 -10,241 -15,516 -15,824 0,509 14,871 42,1087 2,23 3,38 3,44 0,14 -9,21 -27,24 -44,6 -207,9 -487,9 -66,0 -104,-13 -114,-39 -4,-47 -8,-93 -12,-140 -1,-10 -6,-20 -14,-30 -8,4 -17,12 -28,23 -133,132 -300,198 -499,198 -260,0 -469,-92 -625,-274 -149,-175 -224,-394 -224,-659 0,-269 73,-491 221,-665 155,-185 365,-277 629,-277 186,0 331,59 435,178 18,21 30,31 37,31 12,0 17,-17 17,-48 0,-96 -3,-238 -7,-426 -5,-189 -8,-331 -8,-424 0,-36 10,-56 30,-61 78,-4 187,-12 324,-22 246,-31 356,-46 327,-46 27,0 41,15 41,46zm-697 1699c0,-98 -34,-183 -102,-257 -68,-73 -150,-110 -246,-110 -101,0 -181,37 -241,110 -60,74 -89,162 -89,264 0,100 30,185 90,254 62,74 142,111 240,111 99,0 182,-37 248,-111 66,-74 100,-161 100,-261zm2749 15c0,281 -86,510 -258,685 -172,175 -398,263 -678,263 -270,0 -494,-87 -669,-260 -175,-172 -262,-394 -262,-666 0,-286 84,-519 251,-697 168,-178 394,-267 680,-267 279,0 505,87 677,262 173,175 259,401 259,680zm-606 0c0,-98 -30,-183 -91,-259 -60,-74 -139,-111 -235,-111 -98,0 -178,38 -240,115 -60,71 -89,156 -89,255 0,100 29,186 89,257 62,77 142,115 240,115 96,0 176,-38 239,-115 58,-71 87,-157 87,-257zm2056 -244c0,49 -26,73 -79,73 -24,0 -58,-2 -103,-6 -45,-3 -78,-4 -100,-4 -102,0 -171,16 -208,48 -37,32 -55,97 -55,194 0,53 0,134 2,242 2,108 3,189 3,242 0,36 2,89 7,160 4,71 7,124 7,159 0,30 -21,46 -62,50 -58,5 -149,7 -271,7 -117,0 -210,-3 -280,-11 -41,-5 -62,-25 -62,-61 0,-99 1,-247 2,-443 2,-197 2,-345 2,-443 0,-290 -26,-528 -79,-715 -3,-12 -4,-21 -4,-28 0,-19 9,-31 28,-37 68,-8 168,-21 298,-41 196,-39 296,-58 303,-58 22,0 36,39 42,116 6,77 18,116 33,116 -17,0 33,-32 151,-97 118,-65 232,-97 341,-97 69,0 103,15 103,44 0,36 -4,87 -11,152 -8,70 -12,121 -14,151 0,36 1,84 2,143 3,73 4,121 4,144zm2075 230c0,94 6,236 17,423 12,187 17,328 17,421 0,50 -21,76 -65,80 -152,11 -328,16 -526,16 -23,0 -39,-35 -47,-105 -8,-71 -17,-107 -28,-108 -10,5 -23,15 -39,31 -138,138 -286,208 -444,208 -240,0 -439,-95 -597,-285 -149,-178 -223,-390 -223,-636 0,-285 77,-514 231,-688 159,-180 379,-270 658,-270 192,0 345,67 457,202 5,7 10,10 13,10 12,0 25,-30 40,-89 14,-59 31,-89 51,-89 46,0 132,13 260,39 122,25 209,46 262,63 18,8 28,17 28,30 0,5 -2,18 -6,38 -39,224 -59,460 -59,709zm-594 10c0,-105 -33,-191 -100,-260 -65,-68 -151,-103 -257,-103 -106,0 -192,35 -258,102 -65,68 -98,155 -98,261 0,100 35,186 104,257 69,72 153,108 252,108 105,0 190,-34 257,-103 66,-68 100,-156 100,-262z"/>
   <path class="fil2" d="M61664 24627c0,29 -22,67 -63,114 -78,-19 -158,-29 -236,-29 -166,0 -305,36 -417,110 -134,84 -202,202 -202,357 0,98 72,224 215,375 216,230 351,383 401,462 143,214 215,445 215,690 0,143 -27,296 -83,457 -65,177 -148,307 -246,390 -208,180 -450,332 -729,456 -300,130 -578,195 -830,195 -57,0 -184,-153 -380,-459 -198,-307 -296,-493 -296,-561 0,-24 16,-40 46,-46 198,-36 396,-73 597,-110 246,-79 371,-209 371,-389 0,-125 -73,-269 -216,-432 -257,-286 -389,-436 -401,-454 -143,-202 -215,-417 -215,-642 0,-423 214,-783 642,-1079 383,-263 793,-394 1229,-394 45,0 156,152 332,456 178,305 266,483 266,533z"/>
   <path class="fil2" d="M58347 25934c0,217 13,540 39,967 26,429 39,751 39,965 0,113 -49,173 -148,182 -350,26 -751,37 -1203,37 -54,0 -90,-80 -109,-241 -17,-161 -39,-244 -65,-247 -23,12 -52,35 -88,71 -316,316 -654,475 -1015,475 -550,0 -1005,-216 -1366,-651 -340,-406 -511,-891 -511,-1456 0,-651 176,-1175 529,-1572 365,-412 867,-618 1504,-618 441,0 790,154 1047,463 12,15 22,22 30,22 26,0 57,-68 90,-203 33,-136 72,-204 118,-204 104,0 302,30 595,89 278,57 478,104 598,145 42,17 64,39 64,68 0,11 -5,40 -13,88 -90,511 -135,1051 -135,1620z"/>
   <path class="fil2" d="M53288 25267c-3,0 -88,-23 -254,-70 -168,-46 -304,-69 -408,-69 -249,0 -447,75 -596,227 -149,150 -224,352 -224,602 0,260 83,465 246,612 163,149 375,223 636,223 125,0 265,-31 419,-91 155,-61 228,-91 220,-91 47,0 109,177 185,534 65,325 96,540 96,647 0,105 -174,196 -524,273 -270,59 -489,88 -655,88 -620,0 -1131,-208 -1534,-625 -403,-418 -605,-938 -605,-1561 0,-617 202,-1137 607,-1557 402,-422 914,-632 1530,-632 419,0 789,91 1106,271 74,39 110,77 110,114 0,36 -42,202 -127,500 -78,284 -130,456 -153,515 -25,59 -49,90 -75,90z"/>
   <path class="fil2" d="M49997 25408c0,111 -61,166 -182,166 -53,0 -131,-4 -234,-11 -102,-7 -179,-10 -229,-10 -233,0 -392,36 -476,109 -85,74 -127,223 -127,445 0,121 2,306 6,553 5,247 6,432 6,553 0,83 6,204 16,367 10,162 16,283 16,362 0,68 -46,106 -140,115 -135,11 -343,17 -621,17 -267,0 -481,-9 -641,-26 -94,-12 -140,-58 -140,-140 0,-225 1,-563 4,-1012 3,-451 4,-789 4,-1014 0,-663 -60,-1209 -182,-1636 -5,-26 -8,-48 -8,-64 0,-43 21,-70 63,-85 156,-17 384,-47 683,-94 448,-88 677,-131 692,-131 50,0 84,88 97,264 14,178 40,266 76,266 -39,0 75,-74 345,-222 270,-148 530,-221 780,-221 157,0 235,33 235,101 0,82 -8,197 -26,346 -17,162 -27,277 -30,347 0,82 1,190 4,326 6,166 9,276 9,329z"/>
   <path class="fil2" d="M46351 25934c0,217 13,540 39,967 26,429 39,751 39,965 0,113 -49,173 -149,182 -349,26 -751,37 -1203,37 -53,0 -89,-80 -108,-241 -17,-161 -39,-244 -65,-247 -23,12 -52,35 -88,71 -316,316 -654,475 -1015,475 -550,0 -1005,-216 -1366,-651 -341,-406 -511,-891 -511,-1456 0,-651 176,-1175 528,-1572 366,-412 868,-618 1505,-618 440,0 790,154 1047,463 11,15 21,22 30,22 26,0 56,-68 90,-203 33,-136 72,-204 118,-204 104,0 302,30 595,89 277,57 478,104 598,145 42,17 63,39 63,68 0,11 -4,40 -13,88 -89,511 -134,1051 -134,1620zm-1360 23c0,-240 -75,-438 -227,-593 -150,-158 -346,-236 -589,-236 -243,0 -439,78 -589,233 -150,156 -224,353 -224,596 0,230 78,426 237,589 157,163 349,246 576,246 240,0 435,-78 588,-236 151,-156 228,-355 228,-599z"/>
   <path class="fil2" d="M41300 27892c0,98 -42,153 -127,165 -85,11 -293,17 -627,17 -345,0 -558,-9 -644,-26 -85,-16 -127,-85 -127,-207 0,-130 5,-323 13,-582 9,-258 13,-452 13,-581 0,-494 -6,-847 -17,-1055 -16,-336 -176,-503 -478,-503 -133,0 -264,56 -396,167 -131,111 -203,234 -218,370 -11,118 -17,466 -17,1041 0,133 4,333 13,603 9,269 13,471 13,607 0,94 -40,140 -123,140l-1283 0c-80,0 -119,-58 -119,-173 0,-133 4,-333 13,-597 9,-265 13,-466 13,-602 0,-104 -3,-261 -9,-474 -5,-210 -8,-371 -8,-477 0,-403 -153,-605 -461,-605 -124,0 -258,47 -403,144 -157,104 -236,214 -236,329 0,257 1,641 4,1151 3,511 4,894 4,1148 0,69 -8,114 -26,130 -16,17 -59,29 -130,35 -127,11 -326,17 -599,17 -178,0 -380,-9 -605,-26 -66,-6 -107,-16 -120,-29 -13,-14 -19,-58 -19,-127 0,-227 2,-563 5,-1014 3,-449 4,-787 4,-1012 0,-462 -35,-983 -104,-1561 -6,-33 -9,-59 -9,-76 0,-48 21,-80 60,-97 62,-26 179,-46 350,-64 213,-20 338,-33 377,-39 29,-5 140,-34 335,-89 138,-39 249,-59 334,-59 55,0 84,98 87,294 2,197 14,295 34,295 29,-12 61,-32 97,-59 254,-198 453,-334 601,-408 216,-105 452,-157 704,-157 260,0 490,58 693,173 229,132 376,314 444,547 150,-203 355,-373 618,-512 262,-139 518,-208 766,-208 373,0 678,87 912,258 265,195 398,473 398,834 0,150 -4,375 -13,675 -9,301 -13,526 -13,675 0,177 4,444 13,803 9,356 13,623 13,801z"/>
   <path class="fil2" d="M33721 26106c0,206 4,514 13,921 8,407 13,713 13,915 0,60 -35,96 -106,106 -95,17 -312,26 -647,26 -337,0 -554,-9 -649,-26 -62,-10 -100,-29 -114,-55 -6,-12 -9,-53 -9,-127 0,-194 4,-487 13,-878 9,-390 13,-684 13,-882 0,-800 -32,-1438 -95,-1912 -6,-45 -9,-75 -9,-90 0,-56 38,-83 114,-83 79,0 199,8 362,24 162,18 285,26 367,26 81,0 204,-7 368,-21 164,-13 286,-21 369,-21 68,0 101,28 101,84 0,12 -3,39 -9,81 -63,550 -95,1187 -95,1912z"/>
   <path class="fil3" d="M33833 22962c0,491 -277,737 -830,737 -237,0 -433,-62 -588,-187 -168,-135 -254,-319 -254,-550 0,-219 88,-401 263,-541 160,-130 354,-195 579,-195 221,0 412,66 572,199 172,140 258,321 258,537z"/>
   <path class="fil3" d="M56987 25957c0,-240 -75,-438 -227,-593 -150,-158 -346,-236 -589,-236 -242,0 -439,78 -589,233 -150,156 -224,353 -224,596 0,230 78,426 237,589 158,163 350,246 576,246 240,0 435,-78 588,-236 152,-156 228,-355 228,-599z"/>
   <path class="fil2" d="M31711 26813c0,85 -10,213 -32,384 -22,172 -32,298 -32,379 0,79 -8,131 -24,153 -18,23 -64,55 -140,98 -364,199 -767,299 -1210,299 -812,0 -1219,-312 -1222,-934 0,-187 7,-465 22,-839 14,-374 21,-653 21,-839 0,-124 -72,-187 -216,-187 -12,0 -31,0 -57,0 -24,3 -43,5 -54,5 -107,0 -162,-39 -162,-114 0,-46 4,-116 11,-208 8,-94 11,-163 11,-208 0,-59 -3,-150 -11,-272 -7,-121 -11,-210 -11,-270 0,-57 91,-88 273,-93 101,-3 156,-31 164,-86 18,-107 23,-275 18,-507 -12,-363 -18,-537 -18,-519 0,-328 32,-491 94,-491 77,0 187,16 328,49 162,36 274,58 336,62 145,20 363,46 656,79 71,6 105,31 105,73 0,112 -8,283 -27,512 -19,228 -27,400 -27,516 0,138 40,208 121,208 98,0 247,-5 445,-13 199,-9 348,-13 449,-13 62,0 92,21 92,63 0,65 -7,163 -20,293 -15,130 -22,227 -22,292 0,68 2,166 5,296 2,130 4,228 4,296 0,59 -41,89 -123,89 -56,0 -150,-2 -281,-7 -132,-4 -227,-6 -282,-6l-316 0c-42,0 -64,63 -64,187 0,68 0,169 0,301 3,136 5,237 5,302 0,237 26,402 79,493 76,121 225,182 446,182 71,0 171,-16 302,-49 130,-32 222,-48 276,-48 59,0 88,30 88,92z"/>
   <path class="fil2" d="M28105 25501c0,771 3,1361 9,1773 0,65 4,176 13,333 9,145 13,256 13,335 0,60 -35,94 -105,106 -128,23 -356,33 -685,33 -338,0 -553,-10 -647,-33 -62,-15 -97,-52 -105,-114 0,-9 0,-70 0,-182 0,-251 3,-627 8,-1128 6,-499 9,-875 9,-1123 0,-1184 2,-1724 4,-1620 -8,-623 -44,-1160 -108,-1612 -6,-30 -9,-55 -9,-72 0,-62 37,-92 110,-92l1509 0c71,0 103,28 97,88l-4 76c-73,1219 -109,2296 -109,3232z"/>
   <path class="fil2" d="M25870 24201c0,210 -10,523 -30,940 -20,417 -31,731 -31,939 0,203 8,508 22,914 15,407 22,710 22,911 0,75 -35,124 -106,143 -108,29 -335,43 -683,43 -307,0 -521,-9 -644,-26 -53,-8 -86,-42 -101,-101 -7,-84 -16,-169 -23,-253 -13,-130 -32,-195 -55,-195 39,0 -102,97 -427,288 -325,192 -621,287 -887,287 -748,0 -1192,-338 -1330,-1012 -62,-313 -93,-767 -93,-1362 0,-644 52,-1152 155,-1524 32,-116 90,-174 174,-174 130,0 328,2 593,5 264,2 462,4 592,4 88,0 132,36 132,110 0,20 -3,49 -9,89 -58,384 -87,773 -87,1168 0,491 16,828 47,1008 50,311 235,467 554,467 124,0 258,-55 403,-166 146,-110 221,-226 227,-344 5,-104 8,-813 8,-2124 0,-94 7,-149 22,-166 16,-28 66,-42 152,-42 138,0 345,1 623,4 278,3 485,5 624,5 84,0 133,21 147,63 6,22 9,56 9,101z"/>
   <path class="fil2" d="M20769 27916c0,89 -41,132 -123,132l-1496 0c-82,0 -123,-49 -123,-147 0,-285 10,-711 30,-1280 21,-569 31,-995 31,-1279 0,-81 -15,-126 -44,-130 -31,16 -220,450 -567,1304 -204,501 -407,999 -611,1497 -27,64 -62,101 -104,113 -14,3 -70,4 -169,4 -144,0 -231,-29 -260,-85 -153,-309 -353,-760 -602,-1352 -267,-625 -466,-1077 -599,-1357 -6,-13 -19,-29 -39,-46 -19,26 -29,66 -29,123 0,277 7,691 22,1243 14,553 22,967 22,1245 0,98 -39,147 -119,147l-1414 0c-56,0 -90,-9 -103,-28 -13,-18 -19,-50 -19,-95 0,-307 14,-770 43,-1385 29,-616 43,-1078 43,-1386 0,-326 -14,-940 -43,-1839 -3,-234 -16,-582 -39,-1046l-4 -71c-3,-56 56,-85 177,-85 156,0 389,-4 701,-13 310,-8 543,-13 699,-13 31,0 75,59 131,178l1237 2707c88,184 162,276 221,276 32,0 99,-107 200,-318 285,-592 709,-1484 1267,-2678 49,-110 101,-165 158,-165 82,0 205,5 369,13 165,9 289,13 374,13 71,0 178,-7 324,-21 144,-15 253,-22 322,-22 85,0 127,35 127,102 0,333 -12,829 -35,1491 -23,661 -34,1159 -34,1491 0,308 13,768 39,1383 26,616 39,1075 39,1379z"/>
  </g>
 </g>
</svg>
